<svg width="77" height="64" viewBox="0 0 77 64" fill="none" xmlns="http://www.w3.org/2000/svg">
<path d="M38.5769 0C32.8007 0 18.5746 14.2128 18.5746 19.9841C18.5746 25.7553 32.8007 39.9684 38.5769 39.9684C44.3532 39.9684 58.5795 25.7551 58.5795 19.9841C58.5795 14.213 44.3534 0 38.5769 0ZM35.4599 31.4116C33.0241 30.7485 26.4753 19.3034 27.1392 16.8698C27.8031 14.4362 39.2583 7.89347 41.6941 8.55672C44.13 9.21987 50.6788 20.6647 50.0149 23.0984C49.3511 25.5321 37.8957 32.0749 35.4599 31.4116Z" fill="black"/>
<path d="M8.84759 58.2209V58.2175L3.53038 48.4192C3.42572 48.2264 3.13646 48.2726 3.09717 48.4884L0.44913 63.0405C0.423178 63.1831 0.532839 63.3143 0.677919 63.3143H2.7267C2.83911 63.3143 2.93543 63.234 2.9555 63.1235L4.4976 54.6326L8.64259 62.5276C8.72968 62.6935 8.96735 62.6935 9.05444 62.5276L13.1994 54.6326L14.7415 63.1235C14.7616 63.234 14.8579 63.3143 14.9703 63.3143H17.0191C17.1642 63.3143 17.2739 63.1831 17.2479 63.0405L14.5998 48.4884C14.5606 48.2726 14.2713 48.2264 14.1666 48.4192L8.84759 58.2209Z" fill="black"/>
<path d="M25.8627 48.6935C21.6449 48.6935 18.3409 51.9681 18.3409 56.1493C18.3409 60.3304 21.6449 63.6069 25.8627 63.6069C30.0695 63.6069 33.3653 60.3314 33.3653 56.1493C33.3653 51.9672 30.0695 48.6935 25.8627 48.6935ZM25.8627 61.1104C23.1122 61.1104 20.9573 58.9309 20.9573 56.1493C20.9573 53.3676 23.1122 51.19 25.8627 51.19C28.6022 51.19 30.7489 53.3685 30.7489 56.1493C30.7489 58.93 28.6022 61.1104 25.8627 61.1104Z" fill="black"/>
<path d="M44.9582 57.8595L36.1385 48.3751C35.9947 48.2204 35.7356 48.3221 35.7356 48.5332V63.0821C35.7356 63.2104 35.8398 63.3144 35.9682 63.3144H38.1003C38.2288 63.3144 38.3329 63.2104 38.3329 63.0821V54.4227L47.1331 63.925C47.2767 64.0801 47.5363 63.9786 47.5363 63.7672V49.2183C47.5363 49.09 47.4322 48.986 47.3037 48.986H45.1907C45.0623 48.986 44.9582 49.09 44.9582 49.2183L44.9582 57.8595Z" fill="black"/>
<path d="M49.7973 63.3145H52.0867C52.1774 63.3145 52.2598 63.2618 52.2978 63.1795L54.0129 59.4686H59.4973L61.1737 63.1778C61.2113 63.261 61.2943 63.3145 61.3857 63.3145H63.8698C64.0413 63.3145 64.1538 63.1353 64.0791 62.9811L57.0429 48.4331C56.9583 48.2581 56.7088 48.2581 56.6242 48.4331L49.5879 62.9811C49.5133 63.1353 49.6258 63.3145 49.7973 63.3145ZM55.0881 57.1662L56.7925 53.4706L58.465 57.1662H55.0881Z" fill="black"/>
<path d="M69.6366 48.9859H66.1183C65.9899 48.9859 65.8857 49.0899 65.8857 49.2183V63.0821C65.8857 63.2104 65.9899 63.3144 66.1183 63.3144H69.6366C73.9985 63.3144 76.7088 60.5691 76.7088 56.1492C76.7088 51.7293 73.9985 48.9859 69.6366 48.9859ZM69.6366 60.8561H68.5021V51.425H69.6366C72.4682 51.425 74.0924 53.1471 74.0924 56.1492C74.0924 59.1405 72.4682 60.8561 69.6366 60.8561Z" fill="black"/>
</svg>
