<svg width="77" height="64" viewBox="0 0 77 64" fill="none" xmlns="http://www.w3.org/2000/svg">
<path d="M38.7605 0C32.9843 0 18.7582 14.2128 18.7582 19.9841C18.7582 25.7553 32.9843 39.9684 38.7605 39.9684C44.5367 39.9684 58.763 25.7551 58.763 19.9841C58.763 14.213 44.537 0 38.7605 0ZM35.6435 31.4116C33.2077 30.7485 26.6589 19.3034 27.3228 16.8698C27.9866 14.4362 39.4419 7.89347 41.8777 8.55672C44.3136 9.21987 50.8624 20.6647 50.1985 23.0984C49.5347 25.5321 38.0793 32.0749 35.6435 31.4116Z" fill="white"/>
<path d="M9.03119 58.2209V58.2175L3.71398 48.4192C3.60931 48.2264 3.32005 48.2726 3.28077 48.4884L0.632724 63.0405C0.606772 63.1831 0.716433 63.3143 0.861513 63.3143H2.91029C3.02271 63.3143 3.11903 63.234 3.13909 63.1235L4.68119 54.6326L8.82618 62.5276C8.91327 62.6935 9.15094 62.6935 9.23804 62.5276L13.383 54.6326L14.9251 63.1235C14.9452 63.234 15.0415 63.3143 15.1539 63.3143H17.2027C17.3478 63.3143 17.4574 63.1831 17.4315 63.0405L14.7834 48.4884C14.7442 48.2726 14.4549 48.2264 14.3502 48.4192L9.03119 58.2209Z" fill="white"/>
<path d="M26.0463 48.6935C21.8285 48.6935 18.5245 51.9681 18.5245 56.1493C18.5245 60.3304 21.8285 63.6069 26.0463 63.6069C30.2531 63.6069 33.5489 60.3314 33.5489 56.1493C33.5489 51.9672 30.2531 48.6935 26.0463 48.6935ZM26.0463 61.1104C23.2958 61.1104 21.1409 58.9309 21.1409 56.1493C21.1409 53.3676 23.2958 51.19 26.0463 51.19C28.7858 51.19 30.9325 53.3685 30.9325 56.1493C30.9325 58.93 28.7858 61.1104 26.0463 61.1104Z" fill="white"/>
<path d="M45.1418 57.8595L36.3221 48.3751C36.1783 48.2204 35.9192 48.3221 35.9192 48.5332V63.0821C35.9192 63.2104 36.0233 63.3144 36.1518 63.3144H38.2839C38.4124 63.3144 38.5165 63.2104 38.5165 63.0821V54.4227L47.3167 63.925C47.4603 64.0801 47.7199 63.9786 47.7199 63.7672V49.2183C47.7199 49.09 47.6158 48.986 47.4873 48.986H45.3743C45.2459 48.986 45.1418 49.09 45.1418 49.2183L45.1418 57.8595Z" fill="white"/>
<path d="M49.9809 63.3145H52.2703C52.361 63.3145 52.4434 63.2618 52.4814 63.1795L54.1965 59.4686H59.6809L61.3573 63.1778C61.3949 63.261 61.4779 63.3145 61.5693 63.3145H64.0534C64.2249 63.3145 64.3374 63.1353 64.2627 62.9811L57.2265 48.4331C57.1419 48.2581 56.8924 48.2581 56.8078 48.4331L49.7715 62.9811C49.6969 63.1353 49.8094 63.3145 49.9809 63.3145ZM55.2716 57.1662L56.9761 53.4706L58.6486 57.1662H55.2716Z" fill="white"/>
<path d="M69.8202 48.9859H66.3019C66.1734 48.9859 66.0693 49.0899 66.0693 49.2183V63.0821C66.0693 63.2104 66.1734 63.3144 66.3019 63.3144H69.8202C74.182 63.3144 76.8924 60.5691 76.8924 56.1492C76.8924 51.7293 74.182 48.9859 69.8202 48.9859ZM69.8202 60.8561H68.6857V51.425H69.8202C72.6518 51.425 74.276 53.1471 74.276 56.1492C74.276 59.1405 72.6518 60.8561 69.8202 60.8561Z" fill="white"/>
</svg>
